mtllib model_6.mtl
o model_6
v -523.4299926757812 166.5635986328125 22.012680053710938 
v -523.4299926757812 165.0025177001953 18.08932113647461 
v -523.4299926757812 165.0025177001953 25.941320419311523 
v -523.4299926757812 162.48077392578125 27.41983985900879 
v -523.4299926757812 162.48077392578125 16.61079978942871 
v -523.4299926757812 -75.1634750366211 27.41983985900879 
v -523.4299926757812 -75.1634750366211 16.61079978942871 
v -523.4299926757812 -77.68521881103516 25.941320419311523 
v -523.4299926757812 -77.68521881103516 18.08932113647461 
v -523.4299926757812 -79.24629974365234 22.017959594726562 
v -396.40936279296875 -79.24629974365234 22.017959594726562 
v -396.40936279296875 -77.68521881103516 18.08932113647461 
v -396.40936279296875 -77.68521881103516 25.941320419311523 
v -396.40936279296875 -75.1634750366211 16.61079978942871 
v -396.40936279296875 -75.1634750366211 27.41983985900879 
v -396.40936279296875 162.48077392578125 16.61079978942871 
v -396.40936279296875 162.48077392578125 27.41983985900879 
v -396.40936279296875 165.0025177001953 18.08932113647461 
v -396.40936279296875 165.0025177001953 25.941320419311523 
v -396.40936279296875 166.5635986328125 22.012680053710938 
v -396.40936279296875 -75.1634750366211 16.61079978942871 
v -399.3878479003906 -75.1634750366211 16.61079978942871 
v -396.40936279296875 162.48077392578125 16.61079978942871 
v -399.3878479003906 162.48077392578125 16.61079978942871 
v -523.4299926757812 -75.1634750366211 16.61079978942871 
v -523.4299926757812 162.48077392578125 16.61079978942871 
v -520.4514770507812 -75.1634750366211 16.61079978942871 
v -520.4514770507812 162.48077392578125 16.61079978942871 
v -399.3878479003906 -75.1634750366211 16.61079978942871 
v -396.40936279296875 -75.1634750366211 16.61079978942871 
v -399.3878479003906 -77.68521881103516 18.08932113647461 
v -396.40936279296875 -77.68521881103516 18.08932113647461 
v -396.40936279296875 -79.24629974365234 22.017959594726562 
v -399.3878479003906 -79.24629974365234 22.017959594726562 
v -396.40936279296875 -77.68521881103516 25.941320419311523 
v -399.3878479003906 -77.68521881103516 25.941320419311523 
v -399.3878479003906 -75.1634750366211 27.41983985900879 
v -396.40936279296875 -75.1634750366211 27.41983985900879 
v -399.3878479003906 162.48077392578125 27.41983985900879 
v -396.40936279296875 162.48077392578125 27.41983985900879 
v -399.3878479003906 165.0025177001953 25.941320419311523 
v -396.40936279296875 165.0025177001953 25.941320419311523 
v -396.40936279296875 166.5635986328125 22.012680053710938 
v -399.3878479003906 166.5635986328125 22.012680053710938 
v -396.40936279296875 165.0025177001953 18.08932113647461 
v -399.3878479003906 165.0025177001953 18.08932113647461 
v -399.3878479003906 162.48077392578125 16.61079978942871 
v -520.4514770507812 -75.1634750366211 16.61079978942871 
v -520.4514770507812 -77.68521881103516 18.08932113647461 
v -523.4299926757812 -75.1634750366211 16.61079978942871 
v -523.4299926757812 -77.68521881103516 18.08932113647461 
v -523.4299926757812 -79.24629974365234 22.017959594726562 
v -520.4514770507812 -79.24629974365234 22.017959594726562 
v -523.4299926757812 -77.68521881103516 25.941320419311523 
v -520.4514770507812 -77.68521881103516 25.941320419311523 
v -520.4514770507812 -75.1634750366211 27.41983985900879 
v -523.4299926757812 -75.1634750366211 27.41983985900879 
v -520.4514770507812 162.48077392578125 27.41983985900879 
v -523.4299926757812 162.48077392578125 27.41983985900879 
v -520.4514770507812 165.0025177001953 25.941320419311523 
v -523.4299926757812 165.0025177001953 25.941320419311523 
v -523.4299926757812 166.5635986328125 22.012680053710938 
v -520.4514770507812 166.5635986328125 22.012680053710938 
v -523.4299926757812 165.0025177001953 18.08932113647461 
v -520.4514770507812 165.0025177001953 18.08932113647461 
v -520.4514770507812 162.48077392578125 16.61079978942871 
v -523.4299926757812 162.48077392578125 16.61079978942871 
v -396.40936279296875 162.48077392578125 16.61079978942871 
vn -0.999997615814209 -2.0682260971124217e-13 0.002184694167226553 
vn -0.999997615814209 -2.0682260971124217e-13 0.002184694167226553 
vn -0.999997615814209 -2.0682260971124217e-13 0.002184694167226553 
vn -0.999997615814209 -2.0682260971124217e-13 0.002184694167226553 
vn -0.999997615814209 -2.0682260971124217e-13 0.002184694167226553 
vn -0.999997615814209 -2.0682260971124217e-13 0.002184694167226553 
vn -0.999997615814209 -2.0682260971124217e-13 0.002184694167226553 
vn -0.999997615814209 -2.0682260971124217e-13 0.002184694167226553 
vn -0.999997615814209 -2.0682260971124217e-13 0.002184694167226553 
vn -0.999997615814209 -2.0682260971124217e-13 0.002184694167226553 
vn 0.999997615814209 0 0.002184694167226553 
vn 0.999997615814209 0 0.002184694167226553 
vn 0.999997615814209 0 0.002184694167226553 
vn 0.999997615814209 0 0.002184694167226553 
vn 0.999997615814209 0 0.002184694167226553 
vn 0.999997615814209 0 0.002184694167226553 
vn 0.999997615814209 0 0.002184694167226553 
vn 0.999997615814209 0 0.002184694167226553 
vn 0.999997615814209 0 0.002184694167226553 
vn 0.999997615814209 0 0.002184694167226553 
vn -0.0018891593208536506 -0.26338157057762146 -0.9646899104118347 
vn -0.0018891593208536506 -0.26338157057762146 -0.9646899104118347 
vn -0.0018891593208536506 0.26338157057762146 -0.9646899104118347 
vn -0.0018891593208536506 0.26338157057762146 -0.9646899104118347 
vn -0.0018891593208536506 -0.26338157057762146 -0.9646899104118347 
vn -0.0018891593208536506 0.26338157057762146 -0.9646899104118347 
vn -0.0018891593208536506 -0.26338157057762146 -0.9646899104118347 
vn -0.0018891593208536506 0.26338157057762146 -0.9646899104118347 
vn -0.0018891593208536506 -0.26338157057762146 -0.9646899104118347 
vn -0.0018891593208536506 -0.26338157057762146 -0.9646899104118347 
vn 0.0018888887716457248 -0.7611834406852722 -0.6485338807106018 
vn 0.0018888887716457248 -0.7611834406852722 -0.6485338807106018 
vn 3.097898456858039e-13 -0.999997615814209 0.002184694167226553 
vn 3.097898456858039e-13 -0.999997615814209 0.002184694167226553 
vn -0.003771807299926877 -0.7611764073371887 0.6485338807106018 
vn -0.003771807299926877 -0.7611764073371887 0.6485338807106018 
vn 8.182916285759748e-14 -0.26338833570480347 0.9646899104118347 
vn 8.182916285759748e-14 -0.26338833570480347 0.9646899104118347 
vn -2.7237398127948412e-14 0.26338833570480347 0.9646899104118347 
vn -2.7237398127948412e-14 0.26338833570480347 0.9646899104118347 
vn -0.003771807299926877 0.7611764073371887 0.6485338807106018 
vn -0.003771807299926877 0.7611764073371887 0.6485338807106018 
vn -1.0341130485562108e-13 0.999997615814209 -0.002184694167226553 
vn -1.0341130485562108e-13 0.999997615814209 -0.002184694167226553 
vn 0.0018888887716457248 0.7611834406852722 -0.6485338807106018 
vn 0.0018888887716457248 0.7611834406852722 -0.6485338807106018 
vn -0.0018891593208536506 0.26338157057762146 -0.9646899104118347 
vn -0.0018891593208536506 -0.26338157057762146 -0.9646899104118347 
vn 0.0018888887716457248 -0.7611834406852722 -0.6485338807106018 
vn -0.0018891593208536506 -0.26338157057762146 -0.9646899104118347 
vn 0.0018888887716457248 -0.7611834406852722 -0.6485338807106018 
vn 3.097898456858039e-13 -0.999997615814209 -0.002184694167226553 
vn 3.097898456858039e-13 -0.999997615814209 -0.002184694167226553 
vn -0.003771807299926877 -0.7611764073371887 0.6485338807106018 
vn -0.003771807299926877 -0.7611764073371887 0.6485338807106018 
vn 8.182916285759748e-14 -0.26338833570480347 0.9646899104118347 
vn 8.182916285759748e-14 -0.26338833570480347 0.9646899104118347 
vn -2.7237398127948412e-14 0.26338833570480347 0.9646899104118347 
vn -2.7237398127948412e-14 0.26338833570480347 0.9646899104118347 
vn -0.003771807299926877 0.7611764073371887 0.6485338807106018 
vn -0.003771807299926877 0.7611764073371887 0.6485338807106018 
vn -1.0341130485562108e-13 0.999997615814209 -0.002184694167226553 
vn -1.0341130485562108e-13 0.999997615814209 -0.002184694167226553 
vn 0.0018888887716457248 0.7611834406852722 -0.6485338807106018 
vn 0.0018888887716457248 0.7611834406852722 -0.6485338807106018 
vn -0.0018891593208536506 0.26338157057762146 -0.9646899104118347 
vn -0.0018891593208536506 0.26338157057762146 -0.9646899104118347 
vn -0.0018891593208536506 0.26338157057762146 -0.9646899104118347 
vt 0.29022109508514404 0.033409323543310165 
vt 0.29301753640174866 0.04054918512701988 
vt 0.29301753640174866 0.026258112862706184 
vt 0.29756176471710205 0.023567894473671913 
vt 0.2976199984550476 0.04322805255651474 
vt 0.7299025058746338 0.02298898622393608 
vt 0.7299025058746338 0.04264914244413376 
vt 0.7344467639923096 0.02566785365343094 
vt 0.7345049977302551 0.039958927780389786 
vt 0.7373014688491821 0.032807715237140656 
vt 0.7373014688491821 0.032807715237140656 
vt 0.7345049977302551 0.039958927780389786 
vt 0.7344467639923096 0.02566785365343094 
vt 0.7299025058746338 0.04264914244413376 
vt 0.7299025058746338 0.02298898622393608 
vt 0.2976199984550476 0.04322805255651474 
vt 0.29756176471710205 0.023567894473671913 
vt 0.29301753640174866 0.04054918512701988 
vt 0.29301753640174866 0.026258112862706184 
vt 0.29022109508514404 0.033409323543310165 
vt 0.7299025058746338 0.04264914244413376 
vt 0.7299607992172241 0.04801066219806671 
vt 0.2976199984550476 0.04322805255651474 
vt 0.2976199984550476 0.048589568585157394 
vt 0.7299025058746338 0.04264914244413376 
vt 0.2976199984550476 0.04322805255651474 
vt 0.7299607992172241 0.04801066219806671 
vt 0.2976199984550476 0.048589568585157394 
vt 0.7523322701454163 0.017597200348973274 
vt 0.7523322701454163 0.02295871637761593 
vt 0.7477298378944397 0.0176047682762146 
vt 0.7477880716323853 0.022966284304857254 
vt 0.7421369552612305 0.02297385223209858 
vt 0.7421369552612305 0.017612334340810776 
vt 0.7344467639923096 0.022981420159339905 
vt 0.7344467639923096 0.0176199022680521 
vt 0.7299025058746338 0.017627470195293427 
vt 0.7299025058746338 0.02298898622393608 
vt 0.29756176471710205 0.01820637658238411 
vt 0.29756176471710205 0.023567894473671913 
vt 0.29301753640174866 0.018213944509625435 
vt 0.29301753640174866 0.02357546240091324 
vt 0.28736642003059387 0.023583028465509415 
vt 0.28736642003059387 0.01822151243686676 
vt 0.27973446249961853 0.02359059639275074 
vt 0.2796761989593506 0.018229080364108086 
vt 0.2751320004463196 0.018236646428704262 
vt 0.7523322701454163 0.017597200348973274 
vt 0.7477298378944397 0.0176047682762146 
vt 0.7523322701454163 0.02295871637761593 
vt 0.7477880716323853 0.022966284304857254 
vt 0.7421369552612305 0.02297385223209858 
vt 0.7421369552612305 0.017612334340810776 
vt 0.7344467639923096 0.022981420159339905 
vt 0.7344467639923096 0.0176199022680521 
vt 0.7299025058746338 0.017627470195293427 
vt 0.7299025058746338 0.02298898622393608 
vt 0.29756176471710205 0.01820637658238411 
vt 0.29756176471710205 0.023567894473671913 
vt 0.29301753640174866 0.018213944509625435 
vt 0.29301753640174866 0.02357546240091324 
vt 0.28736642003059387 0.023583028465509415 
vt 0.28736642003059387 0.01822151243686676 
vt 0.27973446249961853 0.02359059639275074 
vt 0.2796761989593506 0.018229080364108086 
vt 0.2751320004463196 0.018236646428704262 
vt 0.2751320004463196 0.023598164319992065 
vt 0.2751320004463196 0.023598164319992065 
s on 
f 1/1/1 2/2/2 3/3/3 
f 2/2/2 4/4/4 3/3/3 
f 3/3/3 4/4/4 4/4/4 
f 4/4/4 2/2/2 4/4/4 
f 4/4/4 2/2/2 2/2/2 
f 2/2/2 5/5/5 2/2/2 
f 2/2/2 5/5/5 4/4/4 
f 5/5/5 6/6/6 4/4/4 
f 4/4/4 6/6/6 6/6/6 
f 6/6/6 5/5/5 6/6/6 
f 6/6/6 5/5/5 5/5/5 
f 5/5/5 7/7/7 5/5/5 
f 5/5/5 7/7/7 6/6/6 
f 7/7/7 8/8/8 6/6/6 
f 6/6/6 8/8/8 8/8/8 
f 8/8/8 7/7/7 8/8/8 
f 8/8/8 7/7/7 7/7/7 
f 7/7/7 9/9/9 7/7/7 
f 7/7/7 9/9/9 8/8/8 
f 9/9/9 10/10/10 8/8/8 
f 8/8/8 10/10/10 10/10/10 
f 10/10/10 11/11/11 10/10/10 
f 10/10/10 11/11/11 11/11/11 
f 11/11/11 12/12/12 11/11/11 
f 11/11/11 12/12/12 13/13/13 
f 12/12/12 14/14/14 13/13/13 
f 13/13/13 14/14/14 15/15/15 
f 14/14/14 16/16/16 15/15/15 
f 15/15/15 16/16/16 17/17/17 
f 16/16/16 18/18/18 17/17/17 
f 17/17/17 18/18/18 19/19/19 
f 18/18/18 20/20/20 19/19/19 
f 19/19/19 20/20/20 20/20/20 
f 20/20/20 21/21/21 20/20/20 
f 20/20/20 21/21/21 21/21/21 
f 21/21/21 22/22/22 21/21/21 
f 21/21/21 22/22/22 23/23/23 
f 22/22/22 24/24/24 23/23/23 
f 23/23/23 24/24/24 24/24/24 
f 24/24/24 25/25/25 24/24/24 
f 24/24/24 25/25/25 25/25/25 
f 25/25/25 26/26/26 25/25/25 
f 25/25/25 26/26/26 27/27/27 
f 26/26/26 28/28/28 27/27/27 
f 27/27/27 28/28/28 28/28/28 
f 28/28/28 29/29/29 28/28/28 
f 28/28/28 29/29/29 29/29/29 
f 29/29/29 30/30/30 29/29/29 
f 29/29/29 30/30/30 31/31/31 
f 30/30/30 32/32/32 31/31/31 
f 31/31/31 32/32/32 33/33/33 
f 32/32/32 33/33/33 33/33/33 
f 33/33/33 33/33/33 31/31/31 
f 33/33/33 31/31/31 31/31/31 
f 31/31/31 31/31/31 31/31/31 
f 31/31/31 33/33/33 31/31/31 
f 31/31/31 33/33/33 34/34/34 
f 33/33/33 35/35/35 34/34/34 
f 34/34/34 35/35/35 36/36/36 
f 35/35/35 37/37/37 36/36/36 
f 36/36/36 37/37/37 37/37/37 
f 37/37/37 35/35/35 37/37/37 
f 37/37/37 35/35/35 35/35/35 
f 35/35/35 38/38/38 35/35/35 
f 35/35/35 38/38/38 37/37/37 
f 38/38/38 39/39/39 37/37/37 
f 37/37/37 39/39/39 39/39/39 
f 39/39/39 38/38/38 39/39/39 
f 39/39/39 38/38/38 38/38/38 
f 38/38/38 40/40/40 38/38/38 
f 38/38/38 40/40/40 39/39/39 
f 40/40/40 41/41/41 39/39/39 
f 39/39/39 41/41/41 41/41/41 
f 41/41/41 40/40/40 41/41/41 
f 41/41/41 40/40/40 40/40/40 
f 40/40/40 42/42/42 40/40/40 
f 40/40/40 42/42/42 41/41/41 
f 42/42/42 43/43/43 41/41/41 
f 41/41/41 43/43/43 44/44/44 
f 43/43/43 45/45/45 44/44/44 
f 44/44/44 45/45/45 46/46/46 
f 45/45/45 47/47/47 46/46/46 
f 46/46/46 47/47/47 47/47/47 
f 47/47/47 48/48/48 47/47/47 
f 47/47/47 48/48/48 48/48/48 
f 48/48/48 49/49/49 48/48/48 
f 48/48/48 49/49/49 50/50/50 
f 49/49/49 51/51/51 50/50/50 
f 50/50/50 51/51/51 51/51/51 
f 51/51/51 49/49/49 51/51/51 
f 51/51/51 49/49/49 52/52/52 
f 49/49/49 53/53/53 52/52/52 
f 52/52/52 53/53/53 54/54/54 
f 53/53/53 55/55/55 54/54/54 
f 54/54/54 55/55/55 56/56/56 
f 55/55/55 56/56/56 56/56/56 
f 56/56/56 56/56/56 54/54/54 
f 56/56/56 54/54/54 54/54/54 
f 54/54/54 54/54/54 54/54/54 
f 54/54/54 56/56/56 54/54/54 
f 54/54/54 56/56/56 57/57/57 
f 56/56/56 58/58/58 57/57/57 
f 57/57/57 58/58/58 59/59/59 
f 58/58/58 60/60/60 59/59/59 
f 59/59/59 60/60/60 61/61/61 
f 60/60/60 62/62/62 61/61/61 
f 61/61/61 62/62/62 62/62/62 
f 62/62/62 60/60/60 62/62/62 
f 62/62/62 60/60/60 60/60/60 
f 60/60/60 63/63/63 60/60/60 
f 60/60/60 63/63/63 62/62/62 
f 63/63/63 64/64/64 62/62/62 
f 62/62/62 64/64/64 64/64/64 
f 64/64/64 63/63/63 64/64/64 
f 64/64/64 63/63/63 63/63/63 
f 63/63/63 65/65/65 63/63/63 
f 63/63/63 65/65/65 64/64/64 
f 65/65/65 66/66/66 64/64/64 
f 64/64/64 66/66/66 67/67/67 
f 47/47/47 45/45/45 68/68/68 

