mtllib model_2.mtl
o model_2
v -524.8002319335938 0.990652322769165 38.68791580200195 
v -524.8002319335938 2.280381202697754 40.45973587036133 
v -528.4140014648438 0.990652322769165 38.68791580200195 
v -528.4140014648438 2.280381202697754 40.45973587036133 
v -524.8002319335938 4.369112491607666 41.142982482910156 
v -528.4140014648438 4.369112491607666 41.142982482910156 
v -524.8002319335938 6.451552867889404 40.45973587036133 
v -528.4140014648438 6.451552867889404 40.45973587036133 
v -524.8002319335938 7.741281509399414 38.68791580200195 
v -528.4140014648438 7.741281509399414 38.68791580200195 
v -524.8002319335938 10.805173873901367 22.116222381591797 
v -528.4140014648438 10.805173873901367 22.116222381591797 
v -524.8002319335938 8.34525203704834 18.734716415405273 
v -528.4140014648438 8.34525203704834 18.734716415405273 
v -524.8002319335938 4.369112491607666 17.437700271606445 
v -528.4140014648438 4.369112491607666 17.437700271606445 
v -524.8002319335938 0.38668176531791687 18.734716415405273 
v -528.4140014648438 0.38668176531791687 18.734716415405273 
v -524.8002319335938 -2.073240041732788 22.116222381591797 
v -528.4140014648438 -2.073240041732788 22.116222381591797 
v -395.0396423339844 0.990652322769165 38.68791580200195 
v -391.4259033203125 0.990652322769165 38.68791580200195 
v -395.0396423339844 2.280381202697754 40.45973587036133 
v -391.4259033203125 2.280381202697754 40.45973587036133 
v -395.0396423339844 4.369112491607666 41.142982482910156 
v -391.4259033203125 4.369112491607666 41.142982482910156 
v -395.0396423339844 6.451552867889404 40.45973587036133 
v -391.4259033203125 6.451552867889404 40.45973587036133 
v -395.0396423339844 7.741281509399414 38.68791580200195 
v -391.4259033203125 7.741281509399414 38.68791580200195 
v -395.0396423339844 10.805173873901367 22.116222381591797 
v -391.4259033203125 10.805173873901367 22.116222381591797 
v -395.0396423339844 8.34525203704834 18.734716415405273 
v -391.4259033203125 8.34525203704834 18.734716415405273 
v -395.0396423339844 4.369112491607666 17.437700271606445 
v -391.4259033203125 4.369112491607666 17.437700271606445 
v -395.0396423339844 0.38668176531791687 18.734716415405273 
v -391.4259033203125 0.38668176531791687 18.734716415405273 
v -395.0396423339844 -2.073240041732788 22.116222381591797 
v -391.4259033203125 -2.073240041732788 22.116222381591797 
v -395.0396423339844 -2.073240041732788 22.116222381591797 
v -391.4259033203125 -2.073240041732788 22.116222381591797 
v -395.0396423339844 0.990652322769165 38.68791580200195 
v -391.4259033203125 0.990652322769165 38.68791580200195 
v -391.4259033203125 4.369112491607666 17.437700271606445 
v -391.4259033203125 8.34525203704834 18.734716415405273 
v -391.4259033203125 0.38668176531791687 18.734716415405273 
v -391.4259033203125 0.990652322769165 38.68791580200195 
v -391.4259033203125 -2.073240041732788 22.116222381591797 
v -391.4259033203125 4.369112491607666 41.142982482910156 
v -391.4259033203125 7.741281509399414 38.68791580200195 
v -391.4259033203125 6.451552867889404 40.45973587036133 
v -528.4140014648438 4.369112491607666 17.437700271606445 
v -528.4140014648438 0.38668176531791687 18.734716415405273 
v -528.4140014648438 8.34525203704834 18.734716415405273 
v -528.4140014648438 0.990652322769165 38.68791580200195 
v -528.4140014648438 4.369112491607666 41.142982482910156 
v -528.4140014648438 2.280381202697754 40.45973587036133 
v -528.4140014648438 7.741281509399414 38.68791580200195 
v -528.4140014648438 6.451552867889404 40.45973587036133 
v -524.8002319335938 -2.073240041732788 22.116222381591797 
v -524.8002319335938 0.990652322769165 38.68791580200195 
v -528.4140014648438 -2.073240041732788 22.116222381591797 
v -528.4140014648438 0.990652322769165 38.68791580200195 
v -528.4140014648438 -2.073240041732788 22.116222381591797 
v -528.4140014648438 10.805173873901367 22.116222381591797 
v -391.4259033203125 2.280381202697754 40.45973587036133 
v -391.4259033203125 10.805173873901367 22.116222381591797 
vn 0.0037708422169089317 -0.9194218516349792 0.3932546079158783 
vn -0.0018826874438673258 -0.5884889960289001 0.8085030317306519 
vn -0.0037708422169089317 -0.9194218516349792 0.3932546079158783 
vn -0.0018826874438673258 -0.5884889960289001 0.8085030317306519 
vn 0 0 1 
vn 0 0 1 
vn -0.0018826874438673258 0.5884889960289001 0.8085030317306519 
vn -0.0018826874438673258 0.5884889960289001 0.8085030317306519 
vn -0.0037708422169089317 0.9194218516349792 0.3932546079158783 
vn -0.0037708422169089317 0.9194218516349792 0.3932546079158783 
vn -1.0112094809503619e-13 0.97575443983078 -0.21886809170246124 
vn -1.0112094809503619e-13 0.97575443983078 -0.21886809170246124 
vn 0.0018903875024989247 0.5884889960289001 -0.8085030317306519 
vn 0.0018903875024989247 0.5884889960289001 -0.8085030317306519 
vn -2.0682311115474694e-13 0 -1 
vn -2.0682311115474694e-13 0 -1 
vn 0.0018903875024989247 -0.5884889960289001 -0.8085030317306519 
vn 0.0018903875024989247 -0.5884889960289001 -0.8085030317306519 
vn 3.022795230268882e-13 -0.97575443983078 -0.21886809170246124 
vn 3.022795230268882e-13 -0.97575443983078 -0.21886809170246124 
vn -0.0037708422169089317 -0.9194218516349792 0.3932546079158783 
vn -0.0037708422169089317 -0.9194218516349792 0.3932546079158783 
vn -0.0018826874438673258 -0.5884889960289001 0.8085030317306519 
vn -0.0018826874438673258 -0.5884889960289001 0.8085030317306519 
vn 0 0 1 
vn 0 0 1 
vn -0.0018826874438673258 0.5884889960289001 0.8085030317306519 
vn -0.0018826874438673258 0.5884889960289001 0.8085030317306519 
vn -0.0037708422169089317 0.9194218516349792 0.3932546079158783 
vn -0.0037708422169089317 0.9194218516349792 0.3932546079158783 
vn -1.0112094809503619e-13 0.97575443983078 -0.21886809170246124 
vn -1.0112094809503619e-13 0.97575443983078 -0.21886809170246124 
vn 0.0018903875024989247 0.5884889960289001 -0.8085030317306519 
vn 0.0018903875024989247 0.5884889960289001 -0.8085030317306519 
vn -2.0682311115474694e-13 0 -1 
vn -2.0682311115474694e-13 0 -1 
vn 0.0018903875024989247 -0.5884889960289001 -0.8085030317306519 
vn 0.0018903875024989247 -0.5884889960289001 -0.8085030317306519 
vn 3.022795230268882e-13 -0.97575443983078 -0.21886809170246124 
vn 3.022795230268882e-13 -0.97575443983078 -0.21886809170246124 
vn 3.022795230268882e-13 -0.97575443983078 -0.21886809170246124 
vn 3.022795230268882e-13 -0.97575443983078 -0.21886809170246124 
vn -0.0037708422169089317 -0.9194218516349792 0.3932546079158783 
vn -0.0037708422169089317 -0.9194218516349792 0.3932546079158783 
vn 0.999997615814209 0 0.002184694167226553 
vn 0.999997615814209 0 0.002184694167226553 
vn 0.999997615814209 0 0.002184694167226553 
vn 0.999997615814209 0 0.002184694167226553 
vn 0.999997615814209 0 0.002184694167226553 
vn 0.999997615814209 0 0.002184694167226553 
vn 0.999997615814209 0 0.002184694167226553 
vn 0.999997615814209 0 0.002184694167226553 
vn -0.999997615814209 -2.0682260971124217e-13 0.002184694167226553 
vn -0.999997615814209 -2.0682260971124217e-13 0.002184694167226553 
vn -0.999997615814209 -2.0682260971124217e-13 0.002184694167226553 
vn -0.999997615814209 -2.0682260971124217e-13 0.002184694167226553 
vn -0.999997615814209 -2.0682260971124217e-13 0.002184694167226553 
vn -0.999997615814209 -2.0682260971124217e-13 0.002184694167226553 
vn -0.999997615814209 -2.0682260971124217e-13 0.002184694167226553 
vn -0.999997615814209 -2.0682260971124217e-13 0.002184694167226553 
vn 3.022795230268882e-13 -0.97575443983078 -0.21886809170246124 
vn 0.0037708422169089317 -0.9194218516349792 0.3932546079158783 
vn 3.022795230268882e-13 -0.97575443983078 -0.21886809170246124 
vn -0.0037708422169089317 -0.9194218516349792 0.3932546079158783 
vn -0.999997615814209 -2.0682260971124217e-13 0.002184694167226553 
vn -0.999997615814209 -2.0682260971124217e-13 0.002184694167226553 
vn 0.999997615814209 0 0.002184694167226553 
vn 0.999997615814209 0 0.002184694167226553 
vt 0.9701021909713745 0.2871459126472473 
vt 0.9701709747314453 0.2833288609981537 
vt 0.9637076258659363 0.2871459126472473 
vt 0.9637076258659363 0.2833288609981537 
vt 0.9701709747314453 0.2793649733066559 
vt 0.9637076258659363 0.2793649733066559 
vt 0.9701709747314453 0.27554792165756226 
vt 0.9637076258659363 0.27554792165756226 
vt 0.9701709747314453 0.27158406376838684 
vt 0.9637076258659363 0.27158406376838684 
vt 0.9702396988868713 0.24178162217140198 
vt 0.9638451337814331 0.24178162217140198 
vt 0.9703084826469421 0.2344411164522171 
vt 0.9638451337814331 0.23429431021213531 
vt 0.9703772068023682 0.22695380449295044 
vt 0.9639139175415039 0.22695380449295044 
vt 0.970445990562439 0.21961331367492676 
vt 0.9639826416969299 0.21946650743484497 
vt 0.9705147743225098 0.2121260017156601 
vt 0.9640514254570007 0.2121260017156601 
vt 0.9701021909713745 0.2871459126472473 
vt 0.9637076258659363 0.2871459126472473 
vt 0.9701709747314453 0.2833288609981537 
vt 0.9637076258659363 0.2833288609981537 
vt 0.9701709747314453 0.2793649733066559 
vt 0.9637076258659363 0.2793649733066559 
vt 0.9701709747314453 0.27554792165756226 
vt 0.9637076258659363 0.27554792165756226 
vt 0.9701709747314453 0.27158406376838684 
vt 0.9637076258659363 0.27158406376838684 
vt 0.9702396988868713 0.24178162217140198 
vt 0.9638451337814331 0.24178162217140198 
vt 0.9703084826469421 0.2344411164522171 
vt 0.9638451337814331 0.23429431021213531 
vt 0.9703772068023682 0.22695380449295044 
vt 0.9639139175415039 0.22695380449295044 
vt 0.970445990562439 0.21961331367492676 
vt 0.9639826416969299 0.21946650743484497 
vt 0.9705147743225098 0.2121260017156601 
vt 0.9640514254570007 0.2121260017156601 
vt 0.9353790283203125 0.24809445440769196 
vt 0.9414297938346863 0.24589230120182037 
vt 0.9459678530693054 0.2759883403778076 
vt 0.9519498944282532 0.27378618717193604 
vt 0.9511247873306274 0.2356155961751938 
vt 0.9584819674491882 0.23664326965808868 
vt 0.9445926547050476 0.23913903534412384 
vt 0.9519498944282532 0.27378618717193604 
vt 0.9414297938346863 0.24589230120182037 
vt 0.9586194753646851 0.2768692076206207 
vt 0.9637076258659363 0.27158406376838684 
vt 0.9620574116706848 0.2751075029373169 
vt 0.9511247873306274 0.2356155961751938 
vt 0.9445926547050476 0.23913903534412384 
vt 0.9584819674491882 0.23664326965808868 
vt 0.9519498944282532 0.27378618717193604 
vt 0.9586194753646851 0.2768692076206207 
vt 0.95476895570755 0.27642878890037537 
vt 0.9637076258659363 0.27158406376838684 
vt 0.9620574116706848 0.2751075029373169 
vt 0.9353790283203125 0.24809445440769196 
vt 0.9459678530693054 0.2759883403778076 
vt 0.9414297938346863 0.24589230120182037 
vt 0.9519498944282532 0.27378618717193604 
vt 0.9414297938346863 0.24589230120182037 
vt 0.9638451337814331 0.24178162217140198 
vt 0.95476895570755 0.27642878890037537 
vt 0.9638451337814331 0.24178162217140198 
s on 
f 1/1/1 2/2/2 3/3/3 
f 2/2/2 4/4/4 3/3/3 
f 3/3/3 4/4/4 4/4/4 
f 4/4/4 2/2/2 4/4/4 
f 4/4/4 2/2/2 2/2/2 
f 2/2/2 5/5/5 2/2/2 
f 2/2/2 5/5/5 4/4/4 
f 5/5/5 6/6/6 4/4/4 
f 4/4/4 6/6/6 6/6/6 
f 6/6/6 5/5/5 6/6/6 
f 6/6/6 5/5/5 5/5/5 
f 5/5/5 7/7/7 5/5/5 
f 5/5/5 7/7/7 6/6/6 
f 7/7/7 8/8/8 6/6/6 
f 6/6/6 8/8/8 8/8/8 
f 8/8/8 7/7/7 8/8/8 
f 8/8/8 7/7/7 7/7/7 
f 7/7/7 9/9/9 7/7/7 
f 7/7/7 9/9/9 8/8/8 
f 9/9/9 10/10/10 8/8/8 
f 8/8/8 10/10/10 10/10/10 
f 10/10/10 9/9/9 10/10/10 
f 10/10/10 9/9/9 9/9/9 
f 9/9/9 11/11/11 9/9/9 
f 9/9/9 11/11/11 10/10/10 
f 11/11/11 12/12/12 10/10/10 
f 10/10/10 12/12/12 12/12/12 
f 12/12/12 11/11/11 12/12/12 
f 12/12/12 11/11/11 11/11/11 
f 11/11/11 13/13/13 11/11/11 
f 11/11/11 13/13/13 12/12/12 
f 13/13/13 14/14/14 12/12/12 
f 12/12/12 14/14/14 14/14/14 
f 14/14/14 13/13/13 14/14/14 
f 14/14/14 13/13/13 13/13/13 
f 13/13/13 15/15/15 13/13/13 
f 13/13/13 15/15/15 14/14/14 
f 15/15/15 16/16/16 14/14/14 
f 14/14/14 16/16/16 16/16/16 
f 16/16/16 15/15/15 16/16/16 
f 16/16/16 15/15/15 15/15/15 
f 15/15/15 17/17/17 15/15/15 
f 15/15/15 17/17/17 16/16/16 
f 17/17/17 18/18/18 16/16/16 
f 16/16/16 18/18/18 18/18/18 
f 18/18/18 17/17/17 18/18/18 
f 18/18/18 17/17/17 17/17/17 
f 17/17/17 19/19/19 17/17/17 
f 17/17/17 19/19/19 18/18/18 
f 19/19/19 20/20/20 18/18/18 
f 18/18/18 20/20/20 20/20/20 
f 20/20/20 21/21/21 20/20/20 
f 20/20/20 21/21/21 21/21/21 
f 21/21/21 22/22/22 21/21/21 
f 21/21/21 22/22/22 23/23/23 
f 22/22/22 24/24/24 23/23/23 
f 23/23/23 24/24/24 25/25/25 
f 24/24/24 26/26/26 25/25/25 
f 25/25/25 26/26/26 27/27/27 
f 26/26/26 28/28/28 27/27/27 
f 27/27/27 28/28/28 29/29/29 
f 28/28/28 30/30/30 29/29/29 
f 29/29/29 30/30/30 31/31/31 
f 30/30/30 32/32/32 31/31/31 
f 31/31/31 32/32/32 33/33/33 
f 32/32/32 34/34/34 33/33/33 
f 33/33/33 34/34/34 35/35/35 
f 34/34/34 36/36/36 35/35/35 
f 35/35/35 36/36/36 37/37/37 
f 36/36/36 38/38/38 37/37/37 
f 37/37/37 38/38/38 39/39/39 
f 38/38/38 40/40/40 39/39/39 
f 39/39/39 40/40/40 40/40/40 
f 40/40/40 41/41/41 40/40/40 
f 40/40/40 41/41/41 41/41/41 
f 41/41/41 42/42/42 41/41/41 
f 41/41/41 42/42/42 43/43/43 
f 42/42/42 44/44/44 43/43/43 
f 43/43/43 44/44/44 44/44/44 
f 44/44/44 45/45/45 44/44/44 
f 44/44/44 45/45/45 45/45/45 
f 45/45/45 46/46/46 45/45/45 
f 45/45/45 46/46/46 47/47/47 
f 46/46/46 48/48/48 47/47/47 
f 47/47/47 48/48/48 49/49/49 
f 48/48/48 49/49/49 49/49/49 
f 49/49/49 49/49/49 48/48/48 
f 49/49/49 48/48/48 48/48/48 
f 48/48/48 48/48/48 48/48/48 
f 48/48/48 46/46/46 48/48/48 
f 48/48/48 46/46/46 50/50/50 
f 46/46/46 51/51/51 50/50/50 
f 50/50/50 51/51/51 52/52/52 
f 51/51/51 52/52/52 52/52/52 
f 52/52/52 52/52/52 53/53/53 
f 52/52/52 53/53/53 53/53/53 
f 53/53/53 53/53/53 53/53/53 
f 53/53/53 54/54/54 53/53/53 
f 53/53/53 54/54/54 55/55/55 
f 54/54/54 56/56/56 55/55/55 
f 55/55/55 56/56/56 57/57/57 
f 56/56/56 58/58/58 57/57/57 
f 57/57/57 58/58/58 58/58/58 
f 58/58/58 55/55/55 58/58/58 
f 58/58/58 55/55/55 55/55/55 
f 55/55/55 57/57/57 55/55/55 
f 55/55/55 57/57/57 59/59/59 
f 57/57/57 60/60/60 59/59/59 
f 59/59/59 60/60/60 60/60/60 
f 60/60/60 61/61/61 60/60/60 
f 60/60/60 61/61/61 61/61/61 
f 61/61/61 62/62/62 61/61/61 
f 61/61/61 62/62/62 63/63/63 
f 62/62/62 64/64/64 63/63/63 
f 54/54/54 65/65/65 56/56/56 
f 66/66/66 55/55/55 59/59/59 
f 50/50/50 67/67/67 48/48/48 
f 68/68/68 51/51/51 46/46/46 

