mtllib model_5.mtl
o model_5
v -524.7960205078125 -102.40115356445312 43.588096618652344 
v -524.7960205078125 6.651233673095703 25.987546920776367 
v -524.7960205078125 -103.4540023803711 37.05221939086914 
v -524.7960205078125 9.976001739501953 20.982711791992188 
v -524.7960205078125 8.369029998779297 18.100749969482422 
v -524.7960205078125 5.265913486480713 17.25160026550293 
v -524.7960205078125 8.369029998779297 18.100749969482422 
v -523.2747192382812 5.265913486480713 17.25160026550293 
v -523.2747192382812 8.369029998779297 18.100749969482422 
v -523.2747192382812 9.976001739501953 20.982711791992188 
v -524.7960205078125 9.976001739501953 20.982711791992188 
v -395.04443359375 -102.40115356445312 43.588096618652344 
v -396.5657043457031 -102.40115356445312 43.588096618652344 
v -395.04443359375 -103.4540023803711 37.05221939086914 
v -396.5657043457031 -103.4540023803711 37.05221939086914 
v -396.5657043457031 9.976001739501953 20.982711791992188 
v -396.5657043457031 9.366460800170898 24.224918365478516 
v -395.04443359375 9.976001739501953 20.982711791992188 
v -395.04443359375 9.366460800170898 24.224918365478516 
v -395.04443359375 6.651233673095703 25.987546920776367 
v -396.5657043457031 6.651233673095703 25.987546920776367 
v -395.04443359375 -102.40115356445312 43.588096618652344 
v -396.5657043457031 -102.40115356445312 43.588096618652344 
v -395.04443359375 5.265913486480713 17.25160026550293 
v -395.04443359375 8.369029998779297 18.100749969482422 
v -395.04443359375 -103.4540023803711 37.05221939086914 
v -395.04443359375 9.976001739501953 20.982711791992188 
v -395.04443359375 6.651233673095703 25.987546920776367 
v -395.04443359375 9.366460800170898 24.224918365478516 
v -395.04443359375 -103.4540023803711 37.05221939086914 
v -396.5657043457031 -103.4540023803711 37.05221939086914 
v -395.04443359375 5.265913486480713 17.25160026550293 
v -396.5657043457031 5.265913486480713 17.25160026550293 
v -395.04443359375 9.976001739501953 20.982711791992188 
v -395.04443359375 8.369029998779297 18.100749969482422 
v -396.5657043457031 9.976001739501953 20.982711791992188 
v -396.5657043457031 8.369029998779297 18.100749969482422 
v -396.5657043457031 5.265913486480713 17.25160026550293 
v -395.04443359375 5.265913486480713 17.25160026550293 
v -523.2747192382812 5.265913486480713 17.25160026550293 
v -523.2747192382812 -103.4540023803711 37.05221939086914 
v -524.7960205078125 5.265913486480713 17.25160026550293 
v -524.7960205078125 -103.4540023803711 37.05221939086914 
v -523.2747192382812 -103.4540023803711 37.05221939086914 
v -523.2747192382812 -102.40115356445312 43.588096618652344 
v -524.7960205078125 -103.4540023803711 37.05221939086914 
v -524.7960205078125 -102.40115356445312 43.588096618652344 
v -523.2747192382812 9.976001739501953 20.982711791992188 
v -524.7960205078125 9.976001739501953 20.982711791992188 
v -523.2747192382812 9.366460800170898 24.224918365478516 
v -524.7960205078125 9.366460800170898 24.224918365478516 
v -524.7960205078125 6.651233673095703 25.987546920776367 
v -523.2747192382812 6.651233673095703 25.987546920776367 
v -524.7960205078125 -102.40115356445312 43.588096618652344 
v -523.2747192382812 -102.40115356445312 43.588096618652344 
v -524.7960205078125 9.366460800170898 24.224918365478516 
v -524.7960205078125 5.265913486480713 17.25160026550293 
v -395.04443359375 -102.40115356445312 43.588096618652344 
vn -0.999997615814209 -2.0682260971124217e-13 -0.002184694167226553 
vn -0.999997615814209 -2.0682260971124217e-13 0.002184694167226553 
vn -0.999997615814209 -2.0682260971124217e-13 -0.002184694167226553 
vn -0.999997615814209 -2.0682260971124217e-13 -0.002184694167226553 
vn -0.999997615814209 -2.0682260971124217e-13 -0.002184694167226553 
vn -4.517018337602159e-15 0.043680015951395035 -0.9990455508232117 
vn -0.0018905125325545669 0.6198199391365051 -0.7847417593002319 
vn -4.517018337602159e-15 0.043680015951395035 -0.9990455508232117 
vn -0.0018905125325545669 0.6198199391365051 -0.7847417593002319 
vn -9.03255538398616e-14 0.8753366470336914 -0.4835140109062195 
vn -9.03255538398616e-14 0.8753366470336914 -0.4835140109062195 
vn 0.003775994060561061 -0.9879868030548096 0.15449213981628418 
vn 0.003775994060561061 -0.9879868030548096 0.15449213981628418 
vn 0.003775994060561061 -0.9879868030548096 0.15449213981628418 
vn 0.003775994060561061 -0.9879868030548096 0.15449213981628418 
vn 0.0018880139105021954 0.9819895029067993 0.18892620503902435 
vn -0.001886310987174511 0.8297948241233826 0.5580654144287109 
vn 0.0018880139105021954 0.9819895029067993 0.18892620503902435 
vn -0.001886310987174511 0.8297948241233826 0.5580654144287109 
vn -0.0018814154900610447 0.3629138767719269 0.931820809841156 
vn -0.0018814154900610447 0.3629138767719269 0.931820809841156 
vn -0.0018728610593825579 0.16095328330993652 0.986960232257843 
vn -0.0018728610593825579 0.16095328330993652 0.986960232257843 
vn 0.999997615814209 0 0.002184694167226553 
vn 0.999997615814209 0 0.002184694167226553 
vn 0.999997615814209 0 0.002184694167226553 
vn 0.999997615814209 0 0.002184694167226553 
vn 0.999997615814209 0 0.002184694167226553 
vn 0.999997615814209 0 0.002184694167226553 
vn 5.535934259831912e-14 -0.17818838357925415 -0.9839963912963867 
vn 5.535934259831912e-14 -0.17818838357925415 -0.9839963912963867 
vn -4.517018337602159e-15 0.043680015951395035 -0.9990455508232117 
vn -4.517018337602159e-15 0.043680015951395035 -0.9990455508232117 
vn -9.03255538398616e-14 0.8753366470336914 -0.4835140109062195 
vn -0.0018905125325545669 0.6198199391365051 -0.7847417593002319 
vn -9.03255538398616e-14 0.8753366470336914 -0.4835140109062195 
vn -0.0018905125325545669 0.6198199391365051 -0.7847417593002319 
vn -4.517018337602159e-15 0.043680015951395035 -0.9990455508232117 
vn -4.517018337602159e-15 0.043680015951395035 -0.9990455508232117 
vn -4.517018337602159e-15 0.043680015951395035 -0.9990455508232117 
vn 5.535934259831912e-14 -0.17818838357925415 -0.9839963912963867 
vn -4.517018337602159e-15 0.043680015951395035 -0.9990455508232117 
vn 5.535934259831912e-14 -0.17818838357925415 -0.9839963912963867 
vn 0.003775994060561061 -0.9879868030548096 0.15449213981628418 
vn -0.003775994060561061 -0.9879868030548096 0.15449213981628418 
vn -0.003775994060561061 -0.9879868030548096 0.15449213981628418 
vn -0.003775994060561061 -0.9879868030548096 0.15449213981628418 
vn 0.0018880139105021954 0.9819895029067993 0.18892620503902435 
vn 0.0018880139105021954 0.9819895029067993 0.18892620503902435 
vn -0.001886310987174511 0.8297948241233826 0.5580654144287109 
vn -0.001886310987174511 0.8297948241233826 0.5580654144287109 
vn -0.0018814154900610447 0.3629138767719269 0.931820809841156 
vn -0.0018814154900610447 0.3629138767719269 0.931820809841156 
vn -0.0018728610593825579 0.16095328330993652 0.986960232257843 
vn -0.0018728610593825579 0.16095328330993652 0.986960232257843 
vn -0.999997615814209 -2.0682260971124217e-13 0.002184694167226553 
vn -0.999997615814209 -2.0682260971124217e-13 -0.002184694167226553 
vn 0.999997615814209 0 0.002184694167226553 
vt 0.5468727350234985 0.06981069594621658 
vt 0.7477518320083618 0.07033883035182953 
vt 0.5469825863838196 0.05777978152036667 
vt 0.7552202343940735 0.062342867255210876 
vt 0.7531334757804871 0.05669182166457176 
vt 0.768949031829834 0.07039164751768112 
vt 0.763677179813385 0.07038108259439468 
vt 0.768949031829834 0.07313794642686844 
vt 0.763677179813385 0.073127381503582 
vt 0.7577463388442993 0.07310625910758972 
vt 0.7577463388442993 0.07037051767110825 
vt 0.5468727350234985 0.06981069594621658 
vt 0.5441269874572754 0.0697895735502243 
vt 0.5469825863838196 0.05777978152036667 
vt 0.5442368388175964 0.05775865539908409 
vt 0.7577463388442993 0.07310625910758972 
vt 0.7531334757804871 0.07309569418430328 
vt 0.7577463388442993 0.07037051767110825 
vt 0.7531334757804871 0.07034939527511597 
vt 0.7477518320083618 0.07033883035182953 
vt 0.7477518320083618 0.07308513671159744 
vt 0.5468727350234985 0.06981069594621658 
vt 0.5468727350234985 0.07254643738269806 
vt 0.7478616237640381 0.05426240339875221 
vt 0.7531334757804871 0.05669182166457176 
vt 0.5469825863838196 0.05777978152036667 
vt 0.7552202343940735 0.062342867255210876 
vt 0.7477518320083618 0.07033883035182953 
vt 0.7531334757804871 0.06796222180128098 
vt 0.5469825863838196 0.05777978152036667 
vt 0.5468727350234985 0.05503347888588905 
vt 0.7478616237640381 0.05426240339875221 
vt 0.7478616237640381 0.0515161007642746 
vt 0.7577463388442993 0.07037051767110825 
vt 0.763677179813385 0.07038108259439468 
vt 0.7577463388442993 0.07310625910758972 
vt 0.763677179813385 0.073127381503582 
vt 0.768949031829834 0.07313794642686844 
vt 0.768949031829834 0.07039164751768112 
vt 0.7478616237640381 0.0515161007642746 
vt 0.5468727350234985 0.05503347888588905 
vt 0.7478616237640381 0.05426240339875221 
vt 0.5469825863838196 0.05777978152036667 
vt 0.5442368388175964 0.05775865539908409 
vt 0.5441269874572754 0.0697895735502243 
vt 0.5469825863838196 0.05777978152036667 
vt 0.5468727350234985 0.06981069594621658 
vt 0.7577463388442993 0.07310625910758972 
vt 0.7577463388442993 0.07037051767110825 
vt 0.7531334757804871 0.07309569418430328 
vt 0.7531334757804871 0.07034939527511597 
vt 0.7477518320083618 0.07033883035182953 
vt 0.7477518320083618 0.07308513671159744 
vt 0.5468727350234985 0.06981069594621658 
vt 0.5468727350234985 0.07254643738269806 
vt 0.7531334757804871 0.06796222180128098 
vt 0.7478616237640381 0.05426240339875221 
vt 0.5468727350234985 0.06981069594621658 
s on 
f 1/1/1 2/2/2 3/3/3 
f 2/2/2 4/4/4 3/3/3 
f 3/3/3 4/4/4 5/5/5 
f 4/4/4 5/5/5 5/5/5 
f 5/5/5 5/5/5 6/6/6 
f 5/5/5 6/6/6 6/6/6 
f 6/6/6 6/6/6 6/6/6 
f 6/6/6 7/7/7 6/6/6 
f 6/6/6 7/7/7 8/8/8 
f 7/7/7 9/9/9 8/8/8 
f 8/8/8 9/9/9 9/9/9 
f 9/9/9 7/7/7 9/9/9 
f 9/9/9 7/7/7 10/10/10 
f 7/7/7 11/11/11 10/10/10 
f 10/10/10 11/11/11 11/11/11 
f 11/11/11 12/12/12 11/11/11 
f 11/11/11 12/12/12 12/12/12 
f 12/12/12 13/13/13 12/12/12 
f 12/12/12 13/13/13 14/14/14 
f 13/13/13 15/15/15 14/14/14 
f 14/14/14 15/15/15 15/15/15 
f 15/15/15 16/16/16 15/15/15 
f 15/15/15 16/16/16 16/16/16 
f 16/16/16 17/17/17 16/16/16 
f 16/16/16 17/17/17 18/18/18 
f 17/17/17 19/19/19 18/18/18 
f 18/18/18 19/19/19 19/19/19 
f 19/19/19 17/17/17 19/19/19 
f 19/19/19 17/17/17 20/20/20 
f 17/17/17 21/21/21 20/20/20 
f 20/20/20 21/21/21 22/22/22 
f 21/21/21 23/23/23 22/22/22 
f 22/22/22 23/23/23 23/23/23 
f 23/23/23 24/24/24 23/23/23 
f 23/23/23 24/24/24 24/24/24 
f 24/24/24 25/25/25 24/24/24 
f 24/24/24 25/25/25 26/26/26 
f 25/25/25 27/27/27 26/26/26 
f 26/26/26 27/27/27 28/28/28 
f 27/27/27 29/29/29 28/28/28 
f 28/28/28 29/29/29 29/29/29 
f 29/29/29 30/30/30 29/29/29 
f 29/29/29 30/30/30 30/30/30 
f 30/30/30 31/31/31 30/30/30 
f 30/30/30 31/31/31 32/32/32 
f 31/31/31 33/33/33 32/32/32 
f 32/32/32 33/33/33 33/33/33 
f 33/33/33 34/34/34 33/33/33 
f 33/33/33 34/34/34 34/34/34 
f 34/34/34 35/35/35 34/34/34 
f 34/34/34 35/35/35 36/36/36 
f 35/35/35 37/37/37 36/36/36 
f 36/36/36 37/37/37 37/37/37 
f 37/37/37 35/35/35 37/37/37 
f 37/37/37 35/35/35 38/38/38 
f 35/35/35 39/39/39 38/38/38 
f 38/38/38 39/39/39 39/39/39 
f 39/39/39 40/40/40 39/39/39 
f 39/39/39 40/40/40 40/40/40 
f 40/40/40 41/41/41 40/40/40 
f 40/40/40 41/41/41 42/42/42 
f 41/41/41 43/43/43 42/42/42 
f 42/42/42 43/43/43 43/43/43 
f 43/43/43 44/44/44 43/43/43 
f 43/43/43 44/44/44 44/44/44 
f 44/44/44 45/45/45 44/44/44 
f 44/44/44 45/45/45 46/46/46 
f 45/45/45 47/47/47 46/46/46 
f 46/46/46 47/47/47 47/47/47 
f 47/47/47 48/48/48 47/47/47 
f 47/47/47 48/48/48 48/48/48 
f 48/48/48 49/49/49 48/48/48 
f 48/48/48 49/49/49 50/50/50 
f 49/49/49 51/51/51 50/50/50 
f 50/50/50 51/51/51 52/52/52 
f 51/51/51 52/52/52 52/52/52 
f 52/52/52 52/52/52 50/50/50 
f 52/52/52 50/50/50 50/50/50 
f 50/50/50 50/50/50 50/50/50 
f 50/50/50 52/52/52 50/50/50 
f 50/50/50 52/52/52 53/53/53 
f 52/52/52 54/54/54 53/53/53 
f 53/53/53 54/54/54 55/55/55 
f 2/2/2 56/56/56 4/4/4 
f 3/3/3 5/5/5 57/57/57 
f 26/26/26 28/28/28 58/58/58 

